<svg xmlns="http://www.w3.org/2000/svg" xmlns:xlink="http://www.w3.org/1999/xlink" xmlns:inkscape="http://www.inkscape.org/namespaces/inkscape" version="1.1" width="502.15693" height="589.5559" viewBox="0 0 502.15693 589.5559">
<defs>
<clipPath id="clip_0">
<path transform="matrix(1,0,0,-1,-249.8883,793.8604)" d="M249.8883 204.3045H752.0452V793.8604H249.8883Z" clip-rule="evenodd"/>
</clipPath>
<clipPath id="clip_1">
<path transform="matrix(1,0,0,-1,-249.8883,793.8604)" d="M0 1000H1000V0H0Z"/>
</clipPath>
</defs>
<g clip-path="url(#clip_0)">
<g inkscape:groupmode="layer" inkscape:label="Layer 3">
</g>
<g inkscape:groupmode="layer" inkscape:label="Testi">
</g>
<g inkscape:groupmode="layer" inkscape:label="Layer 2">
</g>
<g inkscape:groupmode="layer" inkscape:label="Testi copy">
<g clip-path="url(#clip_1)">
<path transform="matrix(1,0,0,-1,153.3139,519.4523)" d="M0 0C-30.624-13.219-82.525 38.724-115.891 116.027-147.749 189.718-151.266 259.851-124.965 277.696L-112.081 246.737V246.727C-121.794 222.163-115.681 174.699-94.341 125.342-66.459 60.745-23.088 17.321 2.512 28.394 14.422 33.565 20.43 49.661 20.566 71.954 24.386 35.187 17.635 7.588 0 0" fill="#1d1d1b"/>
<path transform="matrix(1,0,0,-1,110.13489,372.0148)" d="M0 0C4.31-9.981 4.597-19.456 .643-21.164-3.312-22.871-10.012-16.165-14.321-6.184-18.631 3.797-18.919 13.272-14.964 14.98-11.009 16.687-4.31 9.981 0 0" fill="#1d1d1b"/>
<path transform="matrix(1,0,0,-1,254.33258,450.4595)" d="M0 0C-9.434-4.062-25.399 11.923-35.656 35.712-42.769 52.183-45.296 68.074-43.012 77.639L-40.878 75.992-39.343 74.812-35.488 71.836C-36.779 63.751-34.552 51.36-29.03 38.576-20.439 18.699-7.113 5.334 .767 8.741 4.455 10.332 6.289 15.311 6.326 22.18 7.505 10.837 5.428 2.358 0 0" fill="#1d1d1b"/>
<path transform="matrix(1,0,0,-1,23.82779,164.32849)" d="M0 0 18.964-46.815 2.187-35.553-18.337 15.134C-19.32 17.51-18.567 20.231-16.526 21.79-14.485 23.339-11.649 23.339-9.639 21.749L131.286-86.847C133.662-93.692 136.279-100.495 139.115-107.193Z" fill="#1d1d1b"/>
<path transform="matrix(1,0,0,-1,333.54988,458.82234)" d="M0 0-277.989 215.904-234.597 108.763C-237.789 112.615-241.107 114.561-243.461 113.546-245.23 112.782-246.151 110.469-246.235 107.256L-303.861 249.867-11.049 25.62C-9.333 21.078-4.375 10.016-2.397 5.432-1.612 3.6-.806 1.79 0 0" fill="#e20613"/>
<path transform="matrix(1,0,0,-1,183.8717,112.1004)" d="M0 0-11.72 10.89-11.92 11.41-3.59 7.22Z" fill="#217343"/>
<path transform="matrix(1,0,0,-1,262.21168,198.2804)" d="M0 0C-1.6-3.38-3.01-7.03-4.24-10.93-5.55-15.08-6.63-19.52-7.5-24.19-22.05-30.89-37.68-40.28-37.68-40.28L-85.44 84.95-71.12 71.64-26.8-17.54C-26.8-17.54-13.85-8.47 0 0" fill="#217343"/>
<path transform="matrix(1,0,0,-1,278.95893,359.99143)" d="M0 0H.021C.021-.01 .031-.031 .042-.042ZM35.114-42.095C33.826-36.548 32.769-31.137 31.953-25.904 31.932-25.778 31.911-25.652 31.89-25.537 31.168-21.34 30.666-17.3 30.393-13.459 29.745-6.363 29.577 .303 29.891 6.426 23.109 36.307 24.543 66.585 34.978 91.735 11.67 116.602-1.005 142.098 2.711 157.054L-5.505 164.683C-8.907 159.44-11.67 153.233-13.847 146.326-24.721 111.736-20.524 58.442-2.711 7.462-1.821 4.971-.932 2.491-.021 0H-.031L-6.845 3.715-122.087 66.281 8.216-30.257 15.95-35.982H15.961L31.587-47.537 37.584-51.964C36.684-48.636 35.857-45.339 35.114-42.095" fill="#2dab66"/>
<path transform="matrix(1,0,0,-1,489.42079,271.0926)" d="M0 0C-.136-6.332-79.563 10.811-112.96 18.305-121.856 20.315-127.477 21.612-127.477 21.612L-114.938 21.204-37.929 18.609C-37.929 18.609-86.177 63.424-99.26 61.341-131.872 56.192-154.667 39.53-168.472 16.767-187.615 39.195-195.904 61.205-187.311 71.159-182.099 77.187-171.57 77.7-158.446 73.608-173.883 80.316-187.447 82.671-196.584 79.772L-205.616 87.371C-203.732 88.836-201.765 90.102-199.651 91.191-175.997 103.394-115.891 98.59-93.064 84.785-73.294 72.823 .209 11.042 0 0" fill="#2dab66"/>
<path transform="matrix(1,0,0,-1,358.21168,138.99042)" d="M0 0C-3.43 0-6.21 2.78-6.21 6.2-6.21 9.63-3.43 12.41 0 12.41 3.43 12.41 6.21 9.63 6.21 6.2 6.21 2.78 3.43 0 0 0M132.35 80.55C129.81 80.55 127.75 78.49 127.75 75.95 127.75 75.49 127.82 75.04 127.95 74.62L24.29-.29C22.95 2.19 21.34 4.65 19.52 7.04L75.73 126.37C75.89 126.36 76.05 126.35 76.22 126.35 78.76 126.35 80.82 128.41 80.82 130.95 80.82 133.49 78.76 135.55 76.22 135.55 73.68 135.55 71.62 133.49 71.62 130.95 71.62 129.66 72.15 128.49 73.02 127.66L17.42 9.63C15.99 11.32 14.44 12.96 12.8 14.54-1.9 28.66-40.14 36.98-43.58 33.19-47.77 28.59-41.23 4.04-23.87-16.35-12.15-30.1 13.49-40.29 24.03-29.76 30.6-23.19 30.37-13.11 25.67-3L129.71 72.19C130.45 71.66 131.37 71.35 132.35 71.35 134.89 71.35 136.95 73.41 136.95 75.95 136.95 78.49 134.89 80.55 132.35 80.55" fill="#2dab66"/>
<path transform="matrix(1,0,0,-1,378.19813,264.71894)" d="M0 0C-3.642-4.459-14.925-1.256-25.181 7.127-35.469 15.542-40.818 25.966-37.175 30.435-33.533 34.894-22.219 31.691-11.963 23.308-8.655 20.618-5.861 17.688-3.716 14.83L-16.254 15.239C-16.254 15.239-10.634 13.941-1.737 11.931 1.266 6.991 2.083 2.522 0 0" fill="#1d1d1b"/>
<path transform="matrix(1,0,0,-1,283.8117,183.7204)" d="M0 0C-3.92-3.06-7.4-6.98-10.36-11.58L-11.93-10.15-119.53 89.82-132.77 91.78-159.22 135.65Z" fill="#1d1d1b"/>
<path transform="matrix(1,0,0,-1,426.17713,318.1459)" d="M0 0C-13.358-15.402-55.748-.647-94.696 33.053-101.068 38.539-106.963 44.196-112.245 49.886-110.269 54.725-107.917 59.394-105.225 63.823-99.501 57.111-92.822 50.398-85.325 43.923-52.783 15.777-17.345 3.408-6.168 16.322-.954 22.422-2.011 33.019-8.042 45.423 4.021 26.068 7.701 8.962 0 0" fill="#1d1d1b"/>
<path transform="matrix(1,0,0,-1,415.5531,520.229)" d="M0 0C-19.062-8.207-51.324 24.093-72.051 72.164-92.815 120.198-94.214 165.849-75.152 174.056-64.184 178.784-48.79 170.047-33.737 152.574-43.911 162.105-53.783 166.303-61.234 163.088-77.157 156.205-76.022 118.08-58.662 77.951-41.339 37.784-14.373 10.779 1.551 17.663 9.039 20.916 12.746 31.09 12.746 45.122 15.204 22.05 11.006 4.766 0 0" fill="#1d1d1b"/>
<path transform="matrix(1,0,0,-1,405.68544,422.64823)" d="M0 0-5.923-45.22-38.444-13.219-32.534 31.996Z" fill="#e20613"/>
<path transform="matrix(1,0,0,-1,386.53028,583.29196)" d="M0 0 21.191 42.634 42.255 0" fill="#ff0000"/>
<path transform="matrix(1,0,0,-1,255.11399,540.7582)" d="M0 0H30.457V-5.84H18.274V-42.513H12.245V-5.84H0Z" fill="#1d1d1b"/>
<path transform="matrix(1,0,0,-1,316.65309,546.9121)" d="M0 0H-19.215V-10.801H-.188V-16.704H-19.215V-30.771H-.188V-36.61H-25.181V5.84H0Z" fill="#1d1d1b"/>
<path transform="matrix(1,0,0,-1,344.9115,565.5629)" d="M0 0C1.382-2.135 2.072-4.333 2.072-6.593 2.072-9.775 .857-12.559-1.57-14.945-3.998-17.29-6.93-18.462-10.362-18.462-12.958-18.462-15.365-17.75-17.583-16.327-19.718-14.945-21.665-12.622-23.423-9.356L-23.862-8.603-18.839-5.525-18.337-6.404C-17.249-8.457-16.013-10.047-14.632-11.177-13.418-12.141-12.12-12.622-10.738-12.622-9.525-12.622-8.394-12.35-7.348-11.805-6.343-11.261-5.568-10.528-5.023-9.608-4.48-8.687-4.208-7.703-4.208-6.656-4.208-5.443-4.605-4.292-5.401-3.202-6.615-1.444-8.854 .649-12.12 3.077-15.595 5.714-17.772 7.64-18.651 8.854-20.2 10.906-20.974 13.146-20.974 15.574-20.974 17.584-20.514 19.362-19.592 20.912-19.132 21.707-18.567 22.418-17.897 23.047-17.228 23.674-16.474 24.218-15.637 24.679-14.045 25.6-12.225 26.061-10.173 26.061-8.038 26.061-6.113 25.537-4.396 24.491-2.554 23.486-.691 21.665 1.193 19.028L1.758 18.274-3.014 14.632-3.643 15.385C-5.108 17.311-6.301 18.567-7.222 19.154-8.143 19.696-9.168 19.969-10.298 19.969-11.722 19.969-12.832 19.572-13.627 18.777-14.506 17.938-14.946 16.934-14.946 15.762-14.946 15.092-14.779 14.359-14.443 13.564-14.151 12.852-13.544 12.057-12.623 11.178-12.455 10.968-12.016 10.592-11.303 10.048-10.592 9.503-9.315 8.561-7.472 7.222-3.873 4.542-1.382 2.135 0 0" fill="#1d1d1b"/>
<path transform="matrix(1,0,0,-1,352.32148,540.7582)" d="M0 0H30.457V-5.84H18.274V-42.513H12.245V-5.84H0Z" fill="#1d1d1b"/>
<path transform="matrix(1,0,0,-1,186.4389,540.4367)" d="M0 0V-4.5L5.966-9.085V0ZM0-42.45H5.966V-17.855L0-13.26Z" fill="#1d1d1b"/>
<path transform="matrix(1,0,0,-1,228.4497,540.4367)" d="M0 0V-29.514L-25.621 0H-27.882V-42.45H-21.79V-13.313L3.642-42.45H5.903V0Z" fill="#1d1d1b"/>
<path transform="matrix(1,0,0,-1,197.9307,496.6048)" d="M0 0-6.123 .063V11.994H.188C1.382 11.994 2.292 11.806 2.931 11.429 3.276 11.22 3.632 10.937 4.019 10.581 4.396 10.225 4.762 9.796 5.107 9.294 5.735 8.331 6.06 7.284 6.06 6.154 6.06 4.94 5.735 3.831 5.107 2.826 4.762 2.365 4.5 1.989 4.302 1.695 4.113 1.402 3.736 1.109 3.192 .816 2.596 .523 2.125 .314 1.79 .188 1.444 .063 .848 0 0 0M2.229-5.715C2.826-5.547 3.349-5.369 3.799-5.181 4.239-4.992 4.825-4.731 5.547-4.396 6.615-3.935 7.557-3.36 8.383-2.669 9.21-1.978 9.922-1.151 10.518-.188 11.67 1.612 12.245 3.705 12.245 6.091 12.245 9.022 11.387 11.471 9.692 13.438 8.08 15.364 5.934 16.641 3.255 17.269 3.035 17.311 2.815 17.363 2.585 17.426 2.355 17.489 2.01 17.552 1.559 17.614 1.12 17.677 .534 17.729-.188 17.771-.911 17.813-1.842 17.834-2.993 17.834H-12.172V-24.616H-6.123V-5.777H-5.223L9.566-24.616H17.091Z" fill="#1d1d1b"/>
<path transform="matrix(1,0,0,-1,224.45169,491.3508)" d="M0 0V-29.87H6.06V-4.668ZM0 12.58V8.75L6.06 4.092V12.58Z" fill="#1d1d1b"/>
<path transform="matrix(1,0,0,-1,245.62448,515.4437)" d="M0 0V36.673H-5.997V-5.777H15.877V0Z" fill="#1d1d1b"/>
<path transform="matrix(1,0,0,-1,273.79908,515.4437)" d="M0 0V36.673H-5.987V-5.777H15.877V0Z" fill="#1d1d1b"/>
<path transform="matrix(1,0,0,-1,296.50013,478.77073)" d="M0 0V-4.448L6.06-9.105V0ZM0-42.45H6.06V-17.866L0-13.198Z" fill="#1d1d1b"/>
<path transform="matrix(1,0,0,-1,192.4046,452.8273)" d="M0 0-34.834-15.041-39.652-3.883-4.818 11.158Z" fill="#1d1d1b"/>
</g>
</g>
</g>
</svg>
